<mxfile host="app.diagrams.net" modified="2021-08-30T06:53:53.471Z" agent="5.0 (Macintosh; Intel Mac OS X 10_15_7) AppleWebKit/537.36 (KHTML, like Gecko) Chrome/92.0.4515.159 Safari/537.36" etag="l7YRpDNUinudfxmpX0-J" version="15.0.3" type="github">
  <diagram id="Fc24wovbdlsAbXFzseOG" name="第 1 页">
    <mxGraphModel dx="1106" dy="700" grid="0" gridSize="10" guides="1" tooltips="1" connect="1" arrows="1" fold="1" page="1" pageScale="1" pageWidth="2339" pageHeight="3300" math="0" shadow="0">
      <root>
        <mxCell id="0" />
        <mxCell id="1" parent="0" />
        <mxCell id="VYAuoYHthQ6iFn3R_5oL-7" value="" style="rounded=1;whiteSpace=wrap;html=1;fillColor=#ffe6cc;strokeColor=#d79b00;" parent="1" vertex="1">
          <mxGeometry x="440" y="310" width="1570" height="2040" as="geometry" />
        </mxCell>
        <mxCell id="VYAuoYHthQ6iFn3R_5oL-61" value="" style="rounded=1;whiteSpace=wrap;html=1;glass=0;sketch=0;strokeWidth=1;gradientDirection=south;fillColor=#CCFFE6;strokeColor=#66FFB3;" parent="1" vertex="1">
          <mxGeometry x="980" y="210" width="700" height="970" as="geometry" />
        </mxCell>
        <mxCell id="VYAuoYHthQ6iFn3R_5oL-30" value="&lt;span style=&quot;font-family: monospace&quot;&gt;&lt;font style=&quot;font-size: 17px&quot;&gt;ratings.default.svc.cluster.local:9080&lt;/font&gt;&lt;/span&gt;" style="text;html=1;strokeColor=none;fillColor=none;align=center;verticalAlign=middle;whiteSpace=wrap;rounded=0;" parent="1" vertex="1">
          <mxGeometry x="1145" y="660" width="270" height="20" as="geometry" />
        </mxCell>
        <mxCell id="VYAuoYHthQ6iFn3R_5oL-59" value="" style="rounded=1;whiteSpace=wrap;html=1;glass=0;sketch=0;strokeColor=#6c8ebf;strokeWidth=1;gradientDirection=south;fillColor=#CCFFFF;" parent="1" vertex="1">
          <mxGeometry x="1040" y="260" width="600" height="870" as="geometry" />
        </mxCell>
        <mxCell id="VYAuoYHthQ6iFn3R_5oL-72" value="" style="rounded=0;whiteSpace=wrap;html=1;glass=0;sketch=0;strokeWidth=2;gradientDirection=south;fillColor=none;strokeColor=#006666;dashed=1;" parent="1" vertex="1">
          <mxGeometry x="1005" y="845" width="650" height="200" as="geometry" />
        </mxCell>
        <mxCell id="VYAuoYHthQ6iFn3R_5oL-71" value="" style="rounded=0;whiteSpace=wrap;html=1;glass=0;sketch=0;strokeWidth=2;gradientDirection=south;fillColor=none;strokeColor=#006666;dashed=1;" parent="1" vertex="1">
          <mxGeometry x="1005" y="460" width="650" height="170" as="geometry" />
        </mxCell>
        <mxCell id="VYAuoYHthQ6iFn3R_5oL-69" value="" style="rounded=0;whiteSpace=wrap;html=1;glass=0;sketch=0;strokeWidth=2;gradientDirection=south;fillColor=none;strokeColor=#006666;dashed=1;" parent="1" vertex="1">
          <mxGeometry x="1005" y="270" width="650" height="170" as="geometry" />
        </mxCell>
        <mxCell id="VYAuoYHthQ6iFn3R_5oL-68" value="" style="rounded=0;whiteSpace=wrap;html=1;glass=0;sketch=0;strokeWidth=2;gradientDirection=south;fillColor=none;strokeColor=#006666;dashed=1;" parent="1" vertex="1">
          <mxGeometry x="1005" y="1050" width="650" height="90" as="geometry" />
        </mxCell>
        <mxCell id="VYAuoYHthQ6iFn3R_5oL-64" style="edgeStyle=orthogonalEdgeStyle;curved=1;orthogonalLoop=1;jettySize=auto;html=1;" parent="1" source="VYAuoYHthQ6iFn3R_5oL-8" target="VYAuoYHthQ6iFn3R_5oL-10" edge="1">
          <mxGeometry relative="1" as="geometry" />
        </mxCell>
        <mxCell id="VYAuoYHthQ6iFn3R_5oL-8" value="listener 9080&lt;br&gt;" style="rounded=1;whiteSpace=wrap;html=1;fillColor=#d5e8d4;strokeColor=#82b366;" parent="1" vertex="1">
          <mxGeometry x="300" y="680" width="190" height="50" as="geometry" />
        </mxCell>
        <mxCell id="VYAuoYHthQ6iFn3R_5oL-65" style="edgeStyle=orthogonalEdgeStyle;curved=1;orthogonalLoop=1;jettySize=auto;html=1;entryX=0;entryY=0.363;entryDx=0;entryDy=0;entryPerimeter=0;" parent="1" source="VYAuoYHthQ6iFn3R_5oL-10" target="VYAuoYHthQ6iFn3R_5oL-61" edge="1">
          <mxGeometry relative="1" as="geometry" />
        </mxCell>
        <mxCell id="VYAuoYHthQ6iFn3R_5oL-10" value="" style="rounded=1;whiteSpace=wrap;html=1;fillColor=#fff2cc;strokeColor=#d6b656;align=left;" parent="1" vertex="1">
          <mxGeometry x="520" y="370" width="330" height="250" as="geometry" />
        </mxCell>
        <mxCell id="VYAuoYHthQ6iFn3R_5oL-11" value="&lt;span style=&quot;font-family: monospace ; font-size: 13px&quot;&gt;match http2/http1.0/http1.1&lt;br&gt;http-manager&lt;/span&gt;" style="rounded=1;whiteSpace=wrap;html=1;align=center;fillColor=#d5e8d4;strokeColor=#82b366;" parent="1" vertex="1">
          <mxGeometry x="580" y="410" width="190" height="170" as="geometry" />
        </mxCell>
        <mxCell id="VYAuoYHthQ6iFn3R_5oL-13" style="edgeStyle=orthogonalEdgeStyle;curved=1;orthogonalLoop=1;jettySize=auto;html=1;exitX=0.5;exitY=1;exitDx=0;exitDy=0;" parent="1" source="VYAuoYHthQ6iFn3R_5oL-10" target="VYAuoYHthQ6iFn3R_5oL-10" edge="1">
          <mxGeometry relative="1" as="geometry" />
        </mxCell>
        <mxCell id="VYAuoYHthQ6iFn3R_5oL-14" value="&lt;font style=&quot;font-size: 22px&quot;&gt;filter chains&lt;/font&gt;" style="text;html=1;strokeColor=none;fillColor=none;align=center;verticalAlign=middle;whiteSpace=wrap;rounded=0;" parent="1" vertex="1">
          <mxGeometry x="540" y="320" width="140" height="40" as="geometry" />
        </mxCell>
        <mxCell id="VYAuoYHthQ6iFn3R_5oL-15" value="&lt;font style=&quot;font-size: 17px&quot;&gt;http filter&lt;/font&gt;" style="text;html=1;strokeColor=none;fillColor=none;align=center;verticalAlign=middle;whiteSpace=wrap;rounded=0;" parent="1" vertex="1">
          <mxGeometry x="540" y="380" width="90" height="30" as="geometry" />
        </mxCell>
        <mxCell id="VYAuoYHthQ6iFn3R_5oL-36" value="prefix /" style="edgeStyle=orthogonalEdgeStyle;curved=1;orthogonalLoop=1;jettySize=auto;html=1;exitX=1;exitY=0.5;exitDx=0;exitDy=0;entryX=0;entryY=0.5;entryDx=0;entryDy=0;" parent="1" source="VYAuoYHthQ6iFn3R_5oL-16" target="VYAuoYHthQ6iFn3R_5oL-17" edge="1">
          <mxGeometry relative="1" as="geometry">
            <Array as="points">
              <mxPoint x="1410" y="1080" />
              <mxPoint x="1670" y="1080" />
              <mxPoint x="1670" y="1140" />
              <mxPoint x="1850" y="1140" />
            </Array>
          </mxGeometry>
        </mxCell>
        <mxCell id="VYAuoYHthQ6iFn3R_5oL-16" value="domain *" style="rounded=1;whiteSpace=wrap;html=1;fillColor=#99CCFF;" parent="1" vertex="1">
          <mxGeometry x="1155" y="1070" width="255" height="30" as="geometry" />
        </mxCell>
        <mxCell id="VYAuoYHthQ6iFn3R_5oL-17" value="&lt;span style=&quot;font-family: monospace ; font-size: 13px&quot;&gt;PassthroughCluster&lt;/span&gt;" style="rounded=1;whiteSpace=wrap;html=1;fillColor=#FFCCFF;strokeColor=#FF33FF;" parent="1" vertex="1">
          <mxGeometry x="1896" y="1709" width="270" height="90" as="geometry" />
        </mxCell>
        <mxCell id="VYAuoYHthQ6iFn3R_5oL-18" value="&lt;span style=&quot;font-family: monospace ; font-size: 13px&quot;&gt;outbound|9080||details&lt;br&gt;.default.svc.cluster.loca&lt;/span&gt;" style="rounded=1;whiteSpace=wrap;html=1;fillColor=#FFCCFF;strokeColor=#FF33FF;" parent="1" vertex="1">
          <mxGeometry x="1896" y="331.5" width="270" height="90" as="geometry" />
        </mxCell>
        <mxCell id="VYAuoYHthQ6iFn3R_5oL-19" value="&lt;span style=&quot;font-family: monospace ; font-size: 13px&quot;&gt;outbound|9080||productpage.&lt;br&gt;default.svc.cluster.local&lt;/span&gt;" style="rounded=1;whiteSpace=wrap;html=1;fillColor=#FFCCFF;strokeColor=#FF33FF;" parent="1" vertex="1">
          <mxGeometry x="1896" y="664" width="270" height="90" as="geometry" />
        </mxCell>
        <mxCell id="VYAuoYHthQ6iFn3R_5oL-20" value="&lt;span style=&quot;font-family: monospace ; font-size: 13px&quot;&gt;outbound|9080||ratings.&lt;br&gt;default.svc.cluster.local&lt;/span&gt;" style="rounded=1;whiteSpace=wrap;html=1;fillColor=#FFCCFF;strokeColor=#FF33FF;" parent="1" vertex="1">
          <mxGeometry x="1896" y="879" width="270" height="90" as="geometry" />
        </mxCell>
        <mxCell id="VYAuoYHthQ6iFn3R_5oL-21" value="&lt;span style=&quot;font-family: monospace ; font-size: 13px&quot;&gt;outbound|9080||reviews.&lt;br&gt;default.svc.cluster.local&lt;/span&gt;" style="rounded=1;whiteSpace=wrap;html=1;fillColor=#FFCCFF;strokeColor=#FF33FF;" parent="1" vertex="1">
          <mxGeometry x="1896" y="1207" width="270" height="90" as="geometry" />
        </mxCell>
        <mxCell id="VYAuoYHthQ6iFn3R_5oL-23" value="&lt;font style=&quot;font-size: 17px&quot;&gt;allow any&lt;/font&gt;" style="text;html=1;strokeColor=none;fillColor=none;align=center;verticalAlign=middle;whiteSpace=wrap;rounded=0;" parent="1" vertex="1">
          <mxGeometry x="1220" y="1050" width="120" height="20" as="geometry" />
        </mxCell>
        <mxCell id="VYAuoYHthQ6iFn3R_5oL-24" value="&lt;span style=&quot;font-family: monospace&quot;&gt;&lt;font style=&quot;font-size: 17px&quot;&gt;details.default.svc.cluster.local:9080&lt;/font&gt;&lt;/span&gt;" style="text;html=1;strokeColor=none;fillColor=none;align=center;verticalAlign=middle;whiteSpace=wrap;rounded=0;" parent="1" vertex="1">
          <mxGeometry x="1210" y="270" width="170" height="10" as="geometry" />
        </mxCell>
        <mxCell id="VYAuoYHthQ6iFn3R_5oL-37" value="prefix /" style="edgeStyle=orthogonalEdgeStyle;curved=1;orthogonalLoop=1;jettySize=auto;html=1;entryX=0;entryY=0.5;entryDx=0;entryDy=0;" parent="1" source="VYAuoYHthQ6iFn3R_5oL-26" target="VYAuoYHthQ6iFn3R_5oL-18" edge="1">
          <mxGeometry relative="1" as="geometry">
            <Array as="points">
              <mxPoint x="1280" y="465" />
              <mxPoint x="1620" y="465" />
              <mxPoint x="1620" y="545" />
              <mxPoint x="1854" y="545" />
              <mxPoint x="1854" y="377" />
            </Array>
          </mxGeometry>
        </mxCell>
        <mxCell id="VYAuoYHthQ6iFn3R_5oL-26" value="&lt;span&gt;domain&lt;/span&gt;&lt;br&gt;&lt;span&gt;details.default.svc.cluster.local&lt;/span&gt;&lt;br&gt;&lt;span&gt;details.default.svc.cluster.local:9080&lt;/span&gt;&lt;br&gt;&lt;span&gt;details&lt;/span&gt;&lt;br&gt;&lt;span&gt;details:9080&lt;/span&gt;&lt;br&gt;&lt;span&gt;details.default.svc&lt;/span&gt;&lt;br&gt;&lt;span&gt;details.default.svc:9080&lt;/span&gt;&lt;br&gt;&lt;span&gt;details.default&lt;/span&gt;&lt;br&gt;&lt;span&gt;details.default:9080&lt;/span&gt;&lt;br&gt;&lt;span&gt;10.105.31.21&lt;/span&gt;&lt;br&gt;&lt;span&gt;10.105.31.21:9080&lt;/span&gt;" style="rounded=1;whiteSpace=wrap;html=1;align=center;fillColor=#99CCFF;" parent="1" vertex="1">
          <mxGeometry x="1152.5" y="290" width="255" height="150" as="geometry" />
        </mxCell>
        <mxCell id="VYAuoYHthQ6iFn3R_5oL-38" value="prefix /" style="edgeStyle=orthogonalEdgeStyle;curved=1;orthogonalLoop=1;jettySize=auto;html=1;entryX=0;entryY=0.5;entryDx=0;entryDy=0;" parent="1" source="VYAuoYHthQ6iFn3R_5oL-27" target="VYAuoYHthQ6iFn3R_5oL-19" edge="1">
          <mxGeometry relative="1" as="geometry" />
        </mxCell>
        <mxCell id="VYAuoYHthQ6iFn3R_5oL-27" value="&lt;span&gt;domain&lt;/span&gt;&lt;br&gt;&lt;span&gt;productpage.default.svc.cluster.local&lt;/span&gt;&lt;br&gt;&lt;span&gt;productpage.default.svc.cluster.local:9080&lt;/span&gt;&lt;br&gt;&lt;span&gt;productpage&lt;/span&gt;&lt;br&gt;&lt;span&gt;productpage:9080&lt;/span&gt;&lt;br&gt;&lt;span&gt;productpage.default.svc&lt;/span&gt;&lt;br&gt;&lt;span&gt;productpage.default.svc:9080&lt;/span&gt;&lt;br&gt;&lt;span&gt;productpage.default&lt;/span&gt;&lt;br&gt;&lt;span&gt;productpage.default:9080&lt;/span&gt;&lt;br&gt;&lt;span&gt;10.108.37.235&lt;/span&gt;&lt;br&gt;&lt;span&gt;10.108.37.235:9080&lt;/span&gt;" style="rounded=1;whiteSpace=wrap;html=1;align=center;fillColor=#99CCFF;" parent="1" vertex="1">
          <mxGeometry x="1152.5" y="480" width="255" height="150" as="geometry" />
        </mxCell>
        <mxCell id="VYAuoYHthQ6iFn3R_5oL-28" value="&lt;span style=&quot;font-family: monospace&quot;&gt;&lt;font style=&quot;font-size: 17px&quot;&gt;productpage.default.svc.cluster.local:9080&lt;/font&gt;&lt;/span&gt;" style="text;html=1;strokeColor=none;fillColor=none;align=center;verticalAlign=middle;whiteSpace=wrap;rounded=0;" parent="1" vertex="1">
          <mxGeometry x="1152.5" y="460" width="270" height="20" as="geometry" />
        </mxCell>
        <mxCell id="VYAuoYHthQ6iFn3R_5oL-126" value="prefix /" style="edgeStyle=orthogonalEdgeStyle;curved=1;orthogonalLoop=1;jettySize=auto;html=1;entryX=0;entryY=0.5;entryDx=0;entryDy=0;strokeColor=#000000;strokeWidth=1;" parent="1" source="VYAuoYHthQ6iFn3R_5oL-29" target="VYAuoYHthQ6iFn3R_5oL-20" edge="1">
          <mxGeometry relative="1" as="geometry" />
        </mxCell>
        <mxCell id="VYAuoYHthQ6iFn3R_5oL-29" value="&lt;span&gt;domain&lt;/span&gt;&lt;br&gt;&lt;span&gt;ratings.default.svc.cluster.local&lt;/span&gt;&lt;br&gt;&lt;span&gt;ratings.default.svc.cluster.local:9080&lt;/span&gt;&lt;br&gt;&lt;span&gt;ratings&lt;/span&gt;&lt;br&gt;&lt;span&gt;ratings:9080&lt;/span&gt;&lt;br&gt;&lt;span&gt;ratings.default.svc&lt;/span&gt;&lt;br&gt;&lt;span&gt;ratings.default.svc:9080&lt;/span&gt;&lt;br&gt;&lt;span&gt;ratings.default&lt;/span&gt;&lt;br&gt;&lt;span&gt;ratings.default:9080&lt;/span&gt;&lt;br&gt;&lt;span&gt;10.109.119.216&lt;/span&gt;&lt;br&gt;&lt;span&gt;10.109.119.216:9080&lt;/span&gt;" style="rounded=1;whiteSpace=wrap;html=1;align=center;fillColor=#99CCFF;" parent="1" vertex="1">
          <mxGeometry x="1155" y="680" width="255" height="150" as="geometry" />
        </mxCell>
        <mxCell id="VYAuoYHthQ6iFn3R_5oL-31" value="&lt;span&gt;domain&lt;/span&gt;&lt;br&gt;&lt;span&gt;reviews.default.svc.cluster.local&lt;/span&gt;&lt;br&gt;&lt;span&gt;reviews.default.svc.cluster.local:9080&lt;/span&gt;&lt;br&gt;&lt;span&gt;reviews&lt;/span&gt;&lt;br&gt;&lt;span&gt;reviews:9080&lt;/span&gt;&lt;br&gt;&lt;span&gt;reviews.default.svc&lt;/span&gt;&lt;br&gt;&lt;span&gt;reviews.default.svc:9080&lt;/span&gt;&lt;br&gt;&lt;span&gt;reviews.default&lt;/span&gt;&lt;br&gt;&lt;span&gt;reviews.default:9080&lt;/span&gt;&lt;br&gt;&lt;span&gt;10.97.102.0&lt;/span&gt;&lt;br&gt;&lt;span&gt;10.97.102.0:9080&lt;/span&gt;" style="rounded=1;whiteSpace=wrap;html=1;align=center;fillColor=#99CCFF;" parent="1" vertex="1">
          <mxGeometry x="1160" y="870" width="255" height="150" as="geometry" />
        </mxCell>
        <mxCell id="VYAuoYHthQ6iFn3R_5oL-32" value="&lt;span style=&quot;font-family: monospace&quot;&gt;&lt;font style=&quot;font-size: 17px&quot;&gt;reviews.default.svc.cluster.local:9080&lt;/font&gt;&lt;/span&gt;" style="text;html=1;strokeColor=none;fillColor=none;align=center;verticalAlign=middle;whiteSpace=wrap;rounded=0;" parent="1" vertex="1">
          <mxGeometry x="1145" y="850" width="270" height="20" as="geometry" />
        </mxCell>
        <mxCell id="VYAuoYHthQ6iFn3R_5oL-60" value="&lt;font style=&quot;font-size: 22px&quot;&gt;virtual hosts&lt;/font&gt;" style="text;html=1;strokeColor=none;fillColor=none;align=center;verticalAlign=middle;whiteSpace=wrap;rounded=0;glass=0;sketch=0;" parent="1" vertex="1">
          <mxGeometry x="1040" y="220" width="150" height="20" as="geometry" />
        </mxCell>
        <mxCell id="VYAuoYHthQ6iFn3R_5oL-62" value="&lt;font style=&quot;font-size: 23px&quot;&gt;route 9080&lt;/font&gt;" style="text;html=1;strokeColor=none;fillColor=none;align=center;verticalAlign=middle;whiteSpace=wrap;rounded=0;glass=0;sketch=0;" parent="1" vertex="1">
          <mxGeometry x="1000" y="140" width="190" height="20" as="geometry" />
        </mxCell>
        <mxCell id="VYAuoYHthQ6iFn3R_5oL-74" value="&lt;font style=&quot;font-size: 20px&quot;&gt;VHDS&lt;/font&gt;" style="text;html=1;strokeColor=none;fillColor=none;align=center;verticalAlign=middle;whiteSpace=wrap;rounded=0;glass=0;dashed=1;sketch=0;" parent="1" vertex="1">
          <mxGeometry x="2080" y="2558" width="40" height="20" as="geometry" />
        </mxCell>
        <mxCell id="VYAuoYHthQ6iFn3R_5oL-78" value="&lt;font style=&quot;font-size: 20px&quot;&gt;RDS&lt;/font&gt;" style="text;html=1;strokeColor=none;fillColor=none;align=center;verticalAlign=middle;whiteSpace=wrap;rounded=0;glass=0;dashed=1;sketch=0;" parent="1" vertex="1">
          <mxGeometry x="2077" y="2648" width="40" height="20" as="geometry" />
        </mxCell>
        <mxCell id="VYAuoYHthQ6iFn3R_5oL-81" value="&lt;font style=&quot;font-size: 20px&quot;&gt;LDS&lt;/font&gt;" style="text;html=1;strokeColor=none;fillColor=none;align=center;verticalAlign=middle;whiteSpace=wrap;rounded=0;glass=0;dashed=1;sketch=0;" parent="1" vertex="1">
          <mxGeometry x="2077" y="2740" width="40" height="20" as="geometry" />
        </mxCell>
        <mxCell id="VYAuoYHthQ6iFn3R_5oL-83" value="" style="rounded=0;whiteSpace=wrap;html=1;glass=0;dashed=1;sketch=0;strokeWidth=3;gradientDirection=south;fillColor=none;strokeColor=#990099;" parent="1" vertex="1">
          <mxGeometry x="1884" y="326.5" width="294" height="100" as="geometry" />
        </mxCell>
        <mxCell id="VYAuoYHthQ6iFn3R_5oL-88" value="&lt;font style=&quot;font-size: 20px&quot;&gt;CDS&lt;/font&gt;" style="text;html=1;strokeColor=none;fillColor=none;align=center;verticalAlign=middle;whiteSpace=wrap;rounded=0;glass=0;dashed=1;sketch=0;" parent="1" vertex="1">
          <mxGeometry x="2080" y="2838" width="40" height="20" as="geometry" />
        </mxCell>
        <mxCell id="VYAuoYHthQ6iFn3R_5oL-102" style="edgeStyle=orthogonalEdgeStyle;curved=1;orthogonalLoop=1;jettySize=auto;html=1;strokeColor=#000000;strokeWidth=1;" parent="1" source="VYAuoYHthQ6iFn3R_5oL-90" target="VYAuoYHthQ6iFn3R_5oL-93" edge="1">
          <mxGeometry relative="1" as="geometry" />
        </mxCell>
        <mxCell id="VYAuoYHthQ6iFn3R_5oL-90" value="listener 15001" style="rounded=1;whiteSpace=wrap;html=1;fillColor=#d5e8d4;strokeColor=#82b366;" parent="1" vertex="1">
          <mxGeometry x="300" y="1400" width="190" height="50" as="geometry" />
        </mxCell>
        <mxCell id="VYAuoYHthQ6iFn3R_5oL-93" value="" style="rounded=1;whiteSpace=wrap;html=1;fillColor=#fff2cc;strokeColor=#d6b656;align=left;" parent="1" vertex="1">
          <mxGeometry x="570" y="1250" width="330" height="290" as="geometry" />
        </mxCell>
        <mxCell id="VYAuoYHthQ6iFn3R_5oL-101" style="edgeStyle=orthogonalEdgeStyle;curved=1;orthogonalLoop=1;jettySize=auto;html=1;entryX=0;entryY=0.5;entryDx=0;entryDy=0;strokeColor=#000000;strokeWidth=1;" parent="1" source="VYAuoYHthQ6iFn3R_5oL-94" target="VYAuoYHthQ6iFn3R_5oL-96" edge="1">
          <mxGeometry relative="1" as="geometry" />
        </mxCell>
        <mxCell id="VYAuoYHthQ6iFn3R_5oL-94" value="&lt;span style=&quot;font-family: monospace ; font-size: 13px&quot;&gt;match dest &lt;br&gt;port 15001&amp;nbsp;&lt;/span&gt;" style="rounded=1;whiteSpace=wrap;html=1;align=center;fillColor=#d5e8d4;strokeColor=#82b366;" parent="1" vertex="1">
          <mxGeometry x="630" y="1280" width="190" height="90" as="geometry" />
        </mxCell>
        <mxCell id="VYAuoYHthQ6iFn3R_5oL-99" style="edgeStyle=orthogonalEdgeStyle;curved=1;orthogonalLoop=1;jettySize=auto;html=1;entryX=0;entryY=0.5;entryDx=0;entryDy=0;strokeWidth=1;" parent="1" source="VYAuoYHthQ6iFn3R_5oL-95" target="VYAuoYHthQ6iFn3R_5oL-17" edge="1">
          <mxGeometry relative="1" as="geometry">
            <mxPoint x="1869.92" y="1289.95" as="targetPoint" />
            <Array as="points">
              <mxPoint x="1821" y="1445" />
              <mxPoint x="1821" y="1755" />
            </Array>
          </mxGeometry>
        </mxCell>
        <mxCell id="VYAuoYHthQ6iFn3R_5oL-95" value="&lt;font face=&quot;monospace&quot;&gt;&lt;span style=&quot;font-size: 13px&quot;&gt;default&lt;br&gt;&lt;/span&gt;&lt;/font&gt;&lt;span style=&quot;font-family: monospace ; font-size: 13px&quot;&gt;TcpProxy&lt;/span&gt;&lt;font face=&quot;monospace&quot;&gt;&lt;span style=&quot;font-size: 13px&quot;&gt;&lt;br&gt;&lt;/span&gt;&lt;/font&gt;" style="rounded=1;whiteSpace=wrap;html=1;align=center;fillColor=#d5e8d4;strokeColor=#82b366;" parent="1" vertex="1">
          <mxGeometry x="630" y="1400" width="190" height="90" as="geometry" />
        </mxCell>
        <mxCell id="VYAuoYHthQ6iFn3R_5oL-96" value="&lt;span style=&quot;font-family: monospace ; font-size: 13px&quot;&gt;BlackHoleCluster&lt;/span&gt;" style="rounded=1;whiteSpace=wrap;html=1;fillColor=#FFCCFF;strokeColor=#FF33FF;" parent="1" vertex="1">
          <mxGeometry x="1884" y="1837.5" width="270" height="90" as="geometry" />
        </mxCell>
        <mxCell id="VYAuoYHthQ6iFn3R_5oL-105" value="&lt;span style=&quot;font-size: 12px&quot;&gt;inbound|9080||&lt;/span&gt;" style="rounded=1;whiteSpace=wrap;html=1;fillColor=#FFCCFF;strokeColor=#FF33FF;" parent="1" vertex="1">
          <mxGeometry x="1870" y="2100" width="270" height="90" as="geometry" />
        </mxCell>
        <mxCell id="VYAuoYHthQ6iFn3R_5oL-112" style="edgeStyle=orthogonalEdgeStyle;curved=1;orthogonalLoop=1;jettySize=auto;html=1;strokeColor=#000000;strokeWidth=1;" parent="1" source="VYAuoYHthQ6iFn3R_5oL-107" target="VYAuoYHthQ6iFn3R_5oL-108" edge="1">
          <mxGeometry relative="1" as="geometry" />
        </mxCell>
        <mxCell id="VYAuoYHthQ6iFn3R_5oL-107" value="listener 15006" style="rounded=1;whiteSpace=wrap;html=1;fillColor=#d5e8d4;strokeColor=#82b366;" parent="1" vertex="1">
          <mxGeometry x="300" y="1920" width="190" height="50" as="geometry" />
        </mxCell>
        <mxCell id="VYAuoYHthQ6iFn3R_5oL-108" value="" style="rounded=1;whiteSpace=wrap;html=1;fillColor=#fff2cc;strokeColor=#d6b656;align=left;" parent="1" vertex="1">
          <mxGeometry x="570" y="1730" width="330" height="380" as="geometry" />
        </mxCell>
        <mxCell id="VYAuoYHthQ6iFn3R_5oL-111" style="edgeStyle=orthogonalEdgeStyle;curved=1;orthogonalLoop=1;jettySize=auto;html=1;entryX=0;entryY=0.5;entryDx=0;entryDy=0;strokeColor=#000000;strokeWidth=1;" parent="1" source="VYAuoYHthQ6iFn3R_5oL-109" target="VYAuoYHthQ6iFn3R_5oL-96" edge="1">
          <mxGeometry relative="1" as="geometry" />
        </mxCell>
        <mxCell id="VYAuoYHthQ6iFn3R_5oL-109" value="&lt;span style=&quot;font-family: monospace ; font-size: 13px&quot;&gt;match dest &lt;br&gt;port 15006&lt;/span&gt;" style="rounded=1;whiteSpace=wrap;html=1;align=center;fillColor=#d5e8d4;strokeColor=#82b366;" parent="1" vertex="1">
          <mxGeometry x="630" y="1750" width="190" height="90" as="geometry" />
        </mxCell>
        <mxCell id="VYAuoYHthQ6iFn3R_5oL-116" style="edgeStyle=orthogonalEdgeStyle;curved=1;orthogonalLoop=1;jettySize=auto;html=1;strokeColor=#000000;strokeWidth=1;" parent="1" source="VYAuoYHthQ6iFn3R_5oL-113" target="VYAuoYHthQ6iFn3R_5oL-114" edge="1">
          <mxGeometry relative="1" as="geometry" />
        </mxCell>
        <mxCell id="VYAuoYHthQ6iFn3R_5oL-113" value="&lt;span style=&quot;font-family: monospace ; font-size: 13px&quot;&gt;match address&lt;br&gt;0.0.0.0&lt;br&gt;&lt;/span&gt;" style="rounded=1;whiteSpace=wrap;html=1;align=center;fillColor=#d5e8d4;strokeColor=#82b366;" parent="1" vertex="1">
          <mxGeometry x="630" y="1860" width="190" height="90" as="geometry" />
        </mxCell>
        <mxCell id="VYAuoYHthQ6iFn3R_5oL-114" value="&lt;span style=&quot;font-family: monospace ; font-size: 13px&quot;&gt;InboundPassthroughCluster&lt;/span&gt;" style="rounded=1;whiteSpace=wrap;html=1;fillColor=#FFCCFF;strokeColor=#FF33FF;" parent="1" vertex="1">
          <mxGeometry x="1866" y="1990" width="270" height="90" as="geometry" />
        </mxCell>
        <mxCell id="VYAuoYHthQ6iFn3R_5oL-118" style="edgeStyle=orthogonalEdgeStyle;curved=1;orthogonalLoop=1;jettySize=auto;html=1;entryX=0;entryY=0.5;entryDx=0;entryDy=0;strokeColor=#000000;strokeWidth=1;" parent="1" source="VYAuoYHthQ6iFn3R_5oL-117" target="VYAuoYHthQ6iFn3R_5oL-105" edge="1">
          <mxGeometry relative="1" as="geometry" />
        </mxCell>
        <mxCell id="VYAuoYHthQ6iFn3R_5oL-117" value="&lt;span style=&quot;font-family: monospace ; font-size: 13px&quot;&gt;match dest &lt;br&gt;port 9080&lt;/span&gt;" style="rounded=1;whiteSpace=wrap;html=1;align=center;fillColor=#d5e8d4;strokeColor=#82b366;" parent="1" vertex="1">
          <mxGeometry x="630" y="1990" width="190" height="90" as="geometry" />
        </mxCell>
        <mxCell id="VYAuoYHthQ6iFn3R_5oL-103" value="" style="rounded=0;whiteSpace=wrap;html=1;glass=0;dashed=1;sketch=0;strokeWidth=3;fillColor=none;gradientDirection=south;strokeColor=#666600;" parent="1" vertex="1">
          <mxGeometry x="300" y="1230" width="1450" height="360" as="geometry" />
        </mxCell>
        <mxCell id="VYAuoYHthQ6iFn3R_5oL-119" value="" style="rounded=0;whiteSpace=wrap;html=1;glass=0;dashed=1;sketch=0;strokeWidth=3;fillColor=none;gradientDirection=south;strokeColor=#666600;" parent="1" vertex="1">
          <mxGeometry x="300" y="1615" width="1450" height="535" as="geometry" />
        </mxCell>
        <mxCell id="VYAuoYHthQ6iFn3R_5oL-120" value="" style="rounded=0;whiteSpace=wrap;html=1;glass=0;dashed=1;sketch=0;strokeWidth=3;fillColor=none;gradientDirection=south;strokeColor=#006633;" parent="1" vertex="1">
          <mxGeometry x="1917" y="2628" width="120" height="60" as="geometry" />
        </mxCell>
        <mxCell id="VYAuoYHthQ6iFn3R_5oL-121" value="" style="rounded=0;whiteSpace=wrap;html=1;glass=0;dashed=1;sketch=0;strokeWidth=3;fillColor=none;gradientDirection=south;strokeColor=#666600;" parent="1" vertex="1">
          <mxGeometry x="1917" y="2720" width="120" height="60" as="geometry" />
        </mxCell>
        <mxCell id="VYAuoYHthQ6iFn3R_5oL-122" value="" style="rounded=0;whiteSpace=wrap;html=1;glass=0;dashed=1;sketch=0;strokeColor=#990099;strokeWidth=3;fillColor=none;gradientDirection=south;" parent="1" vertex="1">
          <mxGeometry x="1917" y="2816" width="120" height="60" as="geometry" />
        </mxCell>
        <mxCell id="VYAuoYHthQ6iFn3R_5oL-123" value="" style="rounded=0;whiteSpace=wrap;html=1;glass=0;dashed=1;sketch=0;strokeWidth=3;fillColor=none;gradientDirection=south;strokeColor=#006666;" parent="1" vertex="1">
          <mxGeometry x="1917" y="2535" width="120" height="60" as="geometry" />
        </mxCell>
        <mxCell id="VYAuoYHthQ6iFn3R_5oL-70" value="" style="rounded=0;whiteSpace=wrap;html=1;glass=0;sketch=0;strokeWidth=2;gradientDirection=south;fillColor=none;strokeColor=#006666;dashed=1;" parent="1" vertex="1">
          <mxGeometry x="1005" y="660" width="650" height="170" as="geometry" />
        </mxCell>
        <mxCell id="VYAuoYHthQ6iFn3R_5oL-76" value="" style="rounded=0;whiteSpace=wrap;html=1;glass=0;dashed=1;sketch=0;strokeWidth=3;fillColor=none;gradientDirection=south;strokeColor=#006633;" parent="1" vertex="1">
          <mxGeometry x="940" y="130" width="780" height="1040" as="geometry" />
        </mxCell>
        <mxCell id="VYAuoYHthQ6iFn3R_5oL-79" value="" style="rounded=0;whiteSpace=wrap;html=1;glass=0;dashed=1;sketch=0;strokeWidth=3;fillColor=none;gradientDirection=south;strokeColor=#666600;" parent="1" vertex="1">
          <mxGeometry x="300" y="80" width="1450" height="1130" as="geometry" />
        </mxCell>
        <mxCell id="HLUIQc3oGr_p4iE0_WQ_-1" value="&lt;span style=&quot;font-family: monospace ; font-size: 13px&quot;&gt;outbound|9080|v1|details&lt;br&gt;.default.svc.cluster.loca&lt;/span&gt;" style="rounded=1;whiteSpace=wrap;html=1;fillColor=#FFCCFF;strokeColor=#FF33FF;" vertex="1" parent="1">
          <mxGeometry x="1896" y="440" width="270" height="90" as="geometry" />
        </mxCell>
        <mxCell id="HLUIQc3oGr_p4iE0_WQ_-2" value="&lt;span style=&quot;font-family: monospace ; font-size: 13px&quot;&gt;outbound|9080|v2|details&lt;br&gt;.default.svc.cluster.loca&lt;/span&gt;" style="rounded=1;whiteSpace=wrap;html=1;fillColor=#FFCCFF;strokeColor=#FF33FF;" vertex="1" parent="1">
          <mxGeometry x="1896" y="552" width="270" height="90" as="geometry" />
        </mxCell>
        <mxCell id="HLUIQc3oGr_p4iE0_WQ_-3" value="&lt;span style=&quot;font-family: monospace ; font-size: 13px&quot;&gt;outbound|9080|v1|productpage.&lt;br&gt;default.svc.cluster.local&lt;/span&gt;" style="rounded=1;whiteSpace=wrap;html=1;fillColor=#FFCCFF;strokeColor=#FF33FF;" vertex="1" parent="1">
          <mxGeometry x="1896" y="769" width="270" height="90" as="geometry" />
        </mxCell>
        <mxCell id="HLUIQc3oGr_p4iE0_WQ_-4" value="&lt;span style=&quot;font-family: monospace ; font-size: 13px&quot;&gt;outbound|9080|v1|ratings.&lt;br&gt;default.svc.cluster.local&lt;/span&gt;" style="rounded=1;whiteSpace=wrap;html=1;fillColor=#FFCCFF;strokeColor=#FF33FF;" vertex="1" parent="1">
          <mxGeometry x="1896" y="982" width="270" height="90" as="geometry" />
        </mxCell>
        <mxCell id="HLUIQc3oGr_p4iE0_WQ_-5" value="&lt;span style=&quot;font-family: monospace ; font-size: 13px&quot;&gt;outbound|9080|v2|ratings.&lt;br&gt;default.svc.cluster.local&lt;/span&gt;" style="rounded=1;whiteSpace=wrap;html=1;fillColor=#FFCCFF;strokeColor=#FF33FF;" vertex="1" parent="1">
          <mxGeometry x="1896" y="1095" width="270" height="90" as="geometry" />
        </mxCell>
      </root>
    </mxGraphModel>
  </diagram>
</mxfile>
